<?xml version="1.0" encoding="utf-8"?>
<!-- Generator: Adobe Illustrator 28.0.0, SVG Export Plug-In . SVG Version: 6.00 Build 0)  -->
<svg version="1.1" id="Layer_1" xmlns="http://www.w3.org/2000/svg" xmlns:xlink="http://www.w3.org/1999/xlink" x="0px" y="0px"
	 viewBox="0 0 566 189" style="enable-background:new 0 0 566 189;" xml:space="preserve">
<style type="text/css">
	.st0{fill:#FFFFFF;}
</style>
<g>
	<path class="st0" d="M88.06,64.96l14.68-4.8c2.12,9.6,9.46,14.26,18.64,14.26c8.19,0,13.27-2.68,13.27-7.06
		c0-4.24-3.95-6.07-12.85-8.33l-7.2-1.69c-16.8-4.09-23.86-11.15-23.86-22.59c0-12.99,11.44-21.74,29.09-21.74
		c16.94,0,29.51,8.9,31.49,23.44l-15.11,3.95c-1.55-8.9-8.19-12.57-16.38-12.57c-7.2,0-11.86,2.82-11.86,6.49
		c0,4.66,5.36,6.21,13.98,8.33l7.06,1.84c15.39,3.67,23.01,11.01,23.01,22.03c0,13.41-12.14,22.59-30.64,22.59
		C105.85,89.1,92.02,81.62,88.06,64.96z"/>
	<path class="st0" d="M229.82,55.07h-51.25c1.13,12.85,7.91,18.5,17.22,18.5c8.61,0,14.83-3.95,18.64-13.84l15.39,5.65
		c-5.65,16.38-18.5,23.72-33.32,23.72c-21.46,0-36.43-15.25-36.43-38.12c0-22.59,14.68-37.98,35.58-37.98
		c20.19,0,34.31,15.25,34.31,37.84C229.96,52.11,229.96,53.8,229.82,55.07z M179.13,42.65h32.33c-1.98-10.31-7.77-14.97-15.81-14.97
		C186.76,27.68,181.11,32.62,179.13,42.65z"/>
	<path class="st0" d="M78.48,55.07H27.22c1.13,12.85,7.91,18.5,17.22,18.5c8.61,0,14.83-3.95,18.64-13.84l15.39,5.65
		C72.83,81.76,59.98,89.1,45.15,89.1c-21.46,0-36.43-15.25-36.43-38.12C8.73,28.39,23.41,13,44.31,13
		c20.19,0,34.31,15.25,34.31,37.84C78.62,52.11,78.62,53.8,78.48,55.07z M27.79,42.65h32.33c-1.98-10.31-7.77-14.97-15.81-14.97
		C35.41,27.68,29.76,32.62,27.79,42.65z"/>
	<path class="st0" d="M305.08,40.53v46.88h-18.21V43.64c0-9.46-5.37-14.83-12.71-14.83c-8.61,0-14.83,5.79-14.83,15.81v42.78h-18.21
		V14.69h18.21v9.46C263.71,16.24,271.05,13,279.24,13C294.07,13,305.08,23.87,305.08,40.53z"/>
	<path class="st0" d="M315.39,50.98c0-22.73,15.81-37.98,36.43-37.98c16.1,0,29.93,8.05,34.73,25.84l-16.1,5.79
		c-3.53-11.15-9.46-15.53-18.64-15.53c-9.18,0-17.65,7.2-17.65,21.88c0,14.68,8.47,21.89,17.65,21.89c9.18,0,15.11-4.24,18.64-15.39
		l16.1,5.79c-4.8,17.79-18.64,25.84-34.73,25.84C331.2,89.1,315.39,73.71,315.39,50.98z"/>
	<path class="st0" d="M413.95,14.69v72.71h-18.21V14.69H413.95z"/>
	<path class="st0" d="M491.04,41.66v45.75h-16.94v-7.06c-4.38,5.79-11.86,8.75-21.46,8.75c-16.94,0-28.1-8.47-28.1-22.73
		c0-13.7,11.58-22.59,29.37-22.59c8.33,0,14.68,2.4,18.92,6.35v-6.64c0-9.74-5.65-14.26-15.11-14.26c-8.05,0-13.56,4.24-16.24,11.58
		l-15.11-6.35C431.31,19.07,444.02,13,458.42,13C475.93,13,491.04,22.03,491.04,41.66z M473.25,66.23c0-6.21-6.07-9.74-14.97-9.74
		c-8.9,0-14.97,3.53-14.97,9.74c0,6.21,6.07,9.6,14.97,9.6C467.18,75.83,473.25,72.44,473.25,66.23z"/>
	<path class="st0" d="M525.49,87.41c-13.41,0-21.04-8.19-21.04-21.46V13h18.21v51.82c0,4.52,1.98,6.92,6.36,6.92h28.25v15.67H525.49
		z"/>
</g>
<g>
	<path class="st0" d="M327.42,101.21h20.3l-40.03,73.09h-20.97l0.11-44.28l-23.42,44.28h-18.74l-3.97-73.09H260l0.43,46.7
		l26.56-46.7h17.83l-1.39,43.47L327.42,101.21z"/>
	<path class="st0" d="M343.18,143.22c0-21.43,16.04-43.72,42.3-43.72c20.86,0,32.5,14.19,32.5,32.79
		c0,21.29-15.33,43.71-42.01,43.71C353.97,176,343.18,160.82,343.18,143.22z M398.96,132.72c0-10.64-5.53-16.89-14.76-16.89
		c-13.91,0-22,14.76-22,26.97c0,10.5,5.54,16.89,14.76,16.89C390.87,159.68,398.96,144.92,398.96,132.72z"/>
	<path class="st0" d="M478.43,99.5l-4.97,19.59h-5.11c-11.35,0-18.03,6.1-21.15,16.89l-9.51,38.32h-18.73l18.31-73.09h18.59
		l-2.84,11.5c6.1-9.23,13.63-13.2,21.43-13.2H478.43z"/>
	<path class="st0" d="M556.85,101.21l-37.04,35.48l21.57,37.61h-21.15l-19.16-36.9l-9.23,36.9h-18.59l19.86-74.8h18.73l-9.49,32.79
		l31.23-31.08H556.85z"/>
</g>
</svg>
